HIERARCHY
ROOT Hips
{
    OFFSET 0.000000 0.000000 0.000000
    CHANNELS 6 Xposition Yposition Zposition Zrotation Xrotation Yrotation
        JOINT Chest
        {
            OFFSET -0.000000 31.935503 -0.000000
            CHANNELS 3 Zrotation Xrotation Yrotation
            JOINT Neck
            {
                OFFSET -0.000000 23.713140 0.000000
                CHANNELS 3 Zrotation Xrotation Yrotation
                JOINT Head
                {
                    OFFSET -0.000000 10.938888 0.000000
                    CHANNELS 3 Zrotation Xrotation Yrotation
                    End Site
                    {
                        OFFSET -0.000000 16.905556 0.000000
                    }
                }
            }
            JOINT LeftCollar
            {
                OFFSET -0.000000 23.713140 0.000000
                CHANNELS 3 Zrotation Xrotation Yrotation
                JOINT LeftShoulder
                {
                    OFFSET 19.888887 -0.000000 0.000000
                    CHANNELS 3 Zrotation Xrotation Yrotation
                    JOINT LeftElbow
                    {
                        OFFSET 23.906332 0.000000 0.000000
                        CHANNELS 3 Zrotation Xrotation Yrotation
                        JOINT LeftWrist
                        {
                            OFFSET 25.116924 0.000000 0.000000
                            CHANNELS 3 Zrotation Xrotation Yrotation
                            End Site
                            {
                                OFFSET 0.000000 -14.916667 0.000000
                            }
                        }
                    }
                }
            }
            JOINT RightCollar
            {
                OFFSET -0.000000 23.713140 0.000000
                CHANNELS 3 Zrotation Xrotation Yrotation
                JOINT RightShoulder
                {
                    OFFSET -19.888887 0.000000 0.000000
                    CHANNELS 3 Zrotation Xrotation Yrotation
                    JOINT RightElbow
                    {
                        OFFSET -23.906332 0.000000 0.000000
                        CHANNELS 3 Zrotation Xrotation Yrotation
                        JOINT RightWrist
                        {
                            OFFSET -25.116924 0.000000 0.000000
                            CHANNELS 3 Zrotation Xrotation Yrotation
                            End Site
                            {
                                OFFSET -0.000000 -14.916667 0.000000
                            }
                        }
                    }
                }
            }
        }
    JOINT LeftHip
    {
        OFFSET 11.933332 0.000000 0.000000
        CHANNELS 3 Zrotation Xrotation Yrotation
        JOINT LeftKnee
        {
            OFFSET -0.000000 -35.996647 0.000000
            CHANNELS 3 Zrotation Xrotation Yrotation
            JOINT LeftAnkle
            {
                OFFSET -0.000000 -39.788193 0.000000
                CHANNELS 3 Zrotation Xrotation Yrotation
                End Site
                {
                    OFFSET -0.000000 -4.972222 16.905556
                }
            }
        }
    }
    JOINT RightHip
    {
        OFFSET -11.933332 0.000000 0.000000
        CHANNELS 3 Zrotation Xrotation Yrotation
        JOINT RightKnee
        {
            OFFSET -0.000000 -35.996647 0.000000
            CHANNELS 3 Zrotation Xrotation Yrotation
            JOINT RightAnkle
            {
                OFFSET -0.000000 -39.788193 0.000000
                CHANNELS 3 Zrotation Xrotation Yrotation
                End Site
                {
                    OFFSET -0.000000 -4.972222 16.905556
                }
            }
        }
    }
}
MOTION
Frames:    12
Frame Time:    0.010000
-94.895157    89.682320    23.895947    -1.603379    -3.444022    36.965439    6.950843    14.166461    1.535876    4.692895    2.989947    -0.482910    -11.022891    -10.833146    -1.414243    -13.692055    1.096785    -9.161380    -40.549908    43.799156    -29.928951    19.291584    -11.406425    -61.595905    100.509155    19.220863    50.080948    10.189661    -1.507116    -17.023922    -2.459511    63.967560    79.204193    -20.029903    -7.769242    42.052689    -114.213943    -2.707567    -28.607527    7.570886    -0.256130    8.397420    -4.116619    26.395441    3.469301    8.221097    -3.365492    16.440657    -4.724864    -15.789538    2.544146    6.567600    24.721222    -17.376799    14.745934    -3.776929    19.930010    
-94.929161    89.722244    24.033022    -1.558697    -3.127631    37.356762    6.675962    13.955957    1.338248    4.368900    2.940125    -0.509070    -10.527556    -11.003826    -1.420998    -13.538589    1.092191    -9.077132    -40.921101    43.628124    -29.445969    19.113506    -11.425938    -62.127705    101.121796    20.148142    50.869747    10.012768    -1.499195    -17.049118    -3.832051    64.120522    80.977745    -20.101849    -7.773804    41.796997    -114.686905    -2.461838    -28.444033    7.701403    -0.678554    8.137053    -4.519663    26.727686    3.974511    8.187905    -3.311265    15.856482    -4.228462    -15.739422    2.330225    6.295616    24.697046    -17.292133    12.582864    -4.424922    20.060741    
-94.964226    89.699013    24.169964    -1.476722    -2.824852    37.765820    6.365744    13.794278    1.144558    4.030102    2.879301    -0.554969    -10.005733    -11.187163    -1.428374    -13.422822    1.024716    -8.996545    -41.242695    43.477432    -28.933256    19.027409    -11.541275    -62.685268    101.541245    21.002666    51.599953    9.847052    -1.494645    -17.059387    -5.006307    64.253761    82.529434    -20.226091    -7.795551    41.561710    -115.029106    -2.289013    -28.282795    7.877339    -1.158816    7.827048    -5.047083    27.270903    4.535369    8.136940    -3.441232    15.319711    -3.789788    -15.704702    2.042966    5.956483    24.751125    -17.226671    10.409575    -5.124036    19.966478    
-94.998619    89.611565    24.306274    -1.357949    -2.546821    38.191319    6.032048    13.689643    0.963491    3.677932    2.813349    -0.600641    -9.472734    -11.381498    -1.456849    -13.326127    1.029508    -8.914221    -41.491531    43.231739    -28.477123    18.866163    -11.542530    -63.213631    101.881210    21.724865    52.245888    9.701115    -1.470581    -17.051569    -5.919129    64.346390    83.779060    -20.353895    -7.816023    41.395195    -115.272125    -2.161594    -28.133656    8.097649    -1.682308    7.477569    -5.684312    28.007120    5.168436    8.041545    -3.754811    14.804256    -3.414824    -15.672845    1.699557    5.560483    24.861555    -17.162264    8.420996    -5.814613    19.622829    
-95.031319    89.460670    24.441631    -1.204957    -2.305936    38.629269    5.688324    13.651217    0.803367    3.325273    2.741668    -0.666905    -8.943310    -11.592492    -1.498187    -13.261678    1.019446    -8.834697    -41.636543    43.004276    -28.083157    18.831890    -11.687697    -63.732307    101.956635    22.231745    52.737072    9.578797    -1.433092    -17.037912    -6.534164    64.396065    84.689125    -20.503941    -7.851814    41.298096    -115.387665    -2.093448    -27.998741    8.362740    -2.231588    7.112586    -6.407477    28.914371    5.858212    7.871931    -4.245152    14.296017    -3.105261    -15.637629    1.329458    5.127213    25.020176    -17.074949    6.768146    -6.459238    19.028742    
-95.062004    89.249306    24.575623    -1.022396    -2.115195    39.072975    5.352124    13.685132    0.671408    2.977768    2.676081    -0.746557    -8.433391    -11.827932    -1.551382    -13.222833    1.048111    -8.747771    -41.687748    42.754723    -27.783926    18.815687    -11.817712    -64.194572    101.902298    22.531773    53.097172    9.473105    -1.421428    -17.011126    -6.854334    64.436729    85.260811    -20.701323    -7.924958    41.260658    -115.370415    -2.086983    -27.878117    8.674865    -2.787941    6.767666    -7.184859    29.969763    6.553371    7.606163    -4.895600    13.797629    -2.859206    -15.600894    0.975245    4.688353    25.235970    -16.939701    5.538738    -7.049679    18.196842    
-95.091125    88.983002    24.707460    -0.817501    -1.986622    39.513607    5.039082    13.795473    0.573333    2.658051    2.618757    -0.843113    -7.969045    -12.088769    -1.628188    -13.222224    1.013354    -8.666229    -41.656887    42.601219    -27.546284    18.998388    -12.088386    -64.602837    101.580872    22.597963    53.317749    9.395591    -1.433566    -16.988338    -6.903320    64.456573    85.489693    -20.864912    -7.988303    41.342846    -115.306389    -2.083128    -27.779728    9.038202    -3.334228    6.485630    -7.979826    31.150644    7.184552    7.243114    -5.677290    13.317642    -2.671156    -15.573655    0.688683    4.286062    25.533150    -16.741798    4.750296    -7.602308    17.151699    
-95.119438    88.670113    24.835964    -0.599406    -1.930108    39.941757    4.765384    13.981278    0.510972    2.372269    2.587039    -0.953909    -7.558640    -12.387568    -1.722863    -13.245928    1.016949    -8.584620    -41.554581    42.456913    -27.418495    19.162369    -12.289202    -64.916199    101.278297    22.522009    53.442566    9.383409    -1.379186    -16.959486    -6.718537    64.361084    85.365341    -20.825300    -7.990957    41.641041    -115.351234    -1.995734    -27.680920    9.458002    -3.856424    6.310164    -8.754367    32.435032    7.684708    6.808063    -6.549128    12.859859    -2.533177    -15.572424    0.520567    3.967283    25.943314    -16.486784    4.356225    -8.147543    15.937570    
-95.147537    88.321884    24.959761    -0.377969    -1.951433    40.349751    4.545998    14.236644    0.481103    2.126663    2.596831    -1.073426    -7.207489    -12.733879    -1.833652    -13.305904    0.997667    -8.501962    -41.372692    42.401817    -27.388214    19.445051    -12.604835    -65.154251    100.873962    22.294455    53.409420    9.396719    -1.419056    -16.916698    -6.440694    64.290253    85.107132    -20.983116    -8.103954    41.878532    -115.188522    -2.023084    -27.587980    9.938325    -4.345051    6.278430    -9.472690    33.801670    7.999304    6.347389    -7.461941    12.424597    -2.437159    -15.614522    0.506829    3.776482    26.495016    -16.203362    4.268488    -8.713470    14.621677    
-95.175514    87.952011    25.077644    -0.162655    -2.050202    40.733704    4.388594    14.552075    0.475806    1.939168    2.652286    -1.212510    -6.926837    -13.126269    -1.966102    -13.401190    0.983573    -8.442423    -41.131950    42.413841    -27.444534    19.790100    -12.919721    -65.294014    100.476097    21.989443    53.280525    9.489160    -1.405777    -16.875084    -6.130666    64.106598    84.661774    -20.859253    -8.096374    42.348881    -115.308296    -1.851386    -27.524723    10.480162    -4.796573    6.415068    -10.105510    35.230206    8.089588    5.916735    -8.364237    12.014519    -2.376428    -15.712933    0.654993    3.746922    27.203024    -15.934336    4.388848    -9.312395    13.287180    
-95.202660    87.575836    25.188774    0.038697    -2.218720    41.095547    4.299013    14.911504    0.480891    1.799623    2.765485    -1.355979    -6.704034    -13.563962    -2.110356    -13.539921    1.004104    -8.396643    -40.824135    42.457237    -27.591074    20.174391    -13.224043    -65.344009    100.138412    21.660810    53.085217    9.632862    -1.420038    -16.811567    -5.912145    63.883430    84.235046    -20.809284    -8.161689    42.776470    -115.369240    -1.713882    -27.459347    11.078918    -5.213779    6.726439    -10.633373    36.700031    7.938558    5.567892    -9.208031    11.635816    -2.347254    -15.871653    0.937039    3.893071    28.060513    -15.722936    4.629310    -9.937630    12.022274    
-95.227943    87.209129    25.292822    0.219693    -2.441999    41.442875    4.279789    15.295238    0.478599    1.702738    2.932369    -1.500471    -6.526543    -14.033866    -2.260017    -13.735639    1.012947    -8.370204    -40.469677    42.551746    -27.777929    20.644913    -13.576006    -65.323593    99.829521    21.329269    52.854404    9.824899    -1.442092    -16.722282    -5.843266    63.616562    83.862129    -20.715561    -8.199131    43.220287    -115.527550    -1.502260    -27.442844    11.725245    -5.606264    7.198977    -11.050818    38.189240    7.556994    5.341231    -9.951401    11.294082    -2.347112    -16.084513    1.293141    4.204120    29.036600    -15.600939    4.918831    -10.567437    10.907272    
